<?xml version="1.0" encoding="UTF-8"?>
<svg id="Layer_1" data-name="Layer 1" xmlns="http://www.w3.org/2000/svg" viewBox="0 0 476.43 519.4">
  <defs>
    <style>
      .cls-1 {
        fill: #c7ac8b;
        stroke-width: 0px;
      }
    </style>
  </defs>
  <path class="cls-1" d="M433.68,380.37c1.01,29.4,2,58.12,3.03,88.14-1.92-1.66-2.88-2.46-3.81-3.29-5.29-4.77-11.22-8.4-18.21-10.01-8.44-1.94-16.49-1.77-23.8,3.93-6.57,5.12-13.73,9.52-20.13,14.84-30.24,25.15-64.76,40.08-103.92,43.93-50.44,4.96-98.75-2.18-143.85-26.35-52-27.87-86.76-70.5-106.73-125.6-9.18-25.32-14.01-51.53-15.66-78.41-3.44-55.97,7.81-108.77,35.18-157.65C72.25,64.76,126.56,22.45,199.78,5.5,224.37-.19,249.32-.75,274.44.63c34.43,1.9,66.11,12.41,95.84,29.48,3.26,1.87,6.67,3.5,10.08,5.1,6.02,2.83,12.13,1.65,18.14-.01,7.77-2.15,13.94-6.83,19.18-12.83.86-.98,1.7-1.98,3.23-3.77,1.97,30.39,3.87,59.84,5.78,89.28-.29.1-.58.2-.87.3-2.19-4.02-4.38-8.03-6.57-12.05,1.22,7.2.72,14.1-.7,21.06-1.42,6.96-3.93,13.34-9.02,18.72,6.85,1.38,10.88-1.52,13.45-7.09,2.47-5.34,4.96-10.67,7.86-16.89-.93,12.52-5.96,22.42-13.13,31.48.22.32.44.64.66.96,4.52-2.18,9-4.44,13.57-6.51,6.09-2.76,12.1-5.79,18.41-7.91,4.16-1.4,8.62-.6,12.58,2.58-13.9.77-22.67,9.02-29.44,20.39,5.12-3.1,10.24-6.19,15.5-9.38-.55,3.45-4.03,8.11-11.49,13.39-4.77,3.37-10.38,5.56-14.91,7.92,5.8,1.19,12.44.11,19.29-1.78,6.78-1.87,13.9-2.53,20.89-3.56,1.38-.2,2.87.3,4.33.75-8.79,1.61-17.72,2.6-25.86,8.73,2.41.37,4.14.63,6.12.93-7.93,1.86-15.56,3.65-23.4,5.48,9.65-4.71,19.03-9.29,28.41-13.87.02-.11.04-.22.06-.33-2.78.83-5.68,1.41-8.33,2.54-10.13,4.32-20.38,3.96-30.93.93,11.55-1.39,22.6-3.7,29.58-14.96-7.99,3.08-15.03,7.91-23.65,8.1,9.64-1.6,14.26-9.31,19.64-16.14-4.13,3.35-8.26,6.71-12.4,10.06,8.84-9.61,17.27-20.05,32.37-19.55-.16-.5-.33-1.01-.49-1.51-2.48.11-5.13-.29-7.41.44-4.83,1.55-9.54,3.52-14.17,5.62-8.63,3.93-17.17,8.07-25.75,12.13-.22-.34-.44-.68-.65-1.02.99-1.09,1.99-2.17,2.98-3.26-.12-.21-.24-.42-.35-.63-8.03,3.29-16.06,6.58-24.1,9.87.05.6.1,1.2.14,1.81,5.7,1.65,11.4,3.31,17.1,4.96-.01.15-.02.31-.03.46-5.38-.73-10.75-1.53-16.14-2.15-1.19-.14-2.45.35-3.68.56.39,1.17.53,2.52,1.22,3.49,1.36,1.91,3.01,3.61,4.48,5.32-1.92-1.34-3.96-2.8-6.04-4.21-3.26-2.21-5.69-1.23-5.67,2.64.03,7.87,3.55,14.37,9.58,19.14,4.19,3.31,9.09,5.73,13.71,8.48,6.45,3.83,12.94,7.59,19.94,11.69-6.41-12.08-18.59-18.66-26.6-28.83.29-.33.59-.66.88-.99,1.28.97,2.65,1.85,3.83,2.93,9,8.22,13.12,8.74,23.83,3.16,9.3-4.84,19.15-8.23,29.7-8.02,7.42.14,14.4,2.7,21.41,8.04-3.35-1.29-5.67-2.06-7.9-3.06-13.39-5.99-26.03-2.92-38.41,3.16-4.9,2.41-9.77,4.9-14.92,7.5,12.23,11.22,15.81,26.55,18.61,42.2-.57.22-1.14.44-1.7.65-.7-2.31-1.53-4.58-2.07-6.93-2.9-12.5-11.41-20.4-21.85-26.68-2.99-1.8-6.25-3.15-9.29-4.88-8.46-4.81-17.03-9.56-20.17-20.9-.81,1.73-1.33,2.36-1.38,3.02-.83,10.83-6.31,19.88-11.02,29.25-1.05,2.08-1.94,4.46-2.06,6.74-.28,5.44-2.65,9.4-7,12.52-1.53,1.1-2.96,2.75-3.68,4.47-5.98,14.41-11.7,28.93-17.72,43.32-1.2,2.87-.46,4.28,1.79,6.02,15.17,11.71,28.15,25.43,37.76,42.14,9.3,16.17,11.91,33.66,11.01,52.09-2.03,41.51-33.73,81.33-83.86,94.72-14.41,3.85-29.03,5.57-43.93,4.97-6.14-.25-6.43-.08-7.7,6.01-2.12,10.14-4.04,20.32-6.14,30.46-.78,3.77,1.2,4.2,4.26,4.29,35.13,1.07,67.27-8.75,96.87-27.1,39.57-24.52,68.77-57.91,85.27-101.84.38-1.01.81-2,1.25-2.98.07-.21.35-.34,1.23-1.09ZM349.97,227.68c2.3-1.63,4.64-3.2,6.88-4.91,2.96-2.26,5.39-4.86,5.37-8.96-.03-7.45,2.48-14.13,6.14-20.5,1.2-2.09,2.19-4.33,3.06-6.58,3.17-8.16,3.94-16.62,3.36-25.26q-16.25-1.01-17.98-4.65c13.58-10.83,29.15-15.2,46.27-14.54-13.99,4.09-29.35,4.33-41.6,14.78,5.83,2.23,10.71.58,15.46-1.32,9.6-3.85,19.12-7.87,28.66-11.86,1.14-.48,2.15-1.25,3.61-2.11-9.67-1.61-18.81-2.53-27.6-4.78-8.33-2.13-16.34-2.91-24.6-.33-.96.3-2.08.04-3.13.04,6.09-4.65,12.78-5.64,19.88-4.44,8.32,1.41,16.66,2.78,24.96,4.34,6.19,1.16,10.87-1.25,13.43-6.53,7.14-14.72,10.37-29.68.73-44.79-13.17-20.62-28.62-39.21-49.2-52.8-16.99-11.22-35.86-18.41-55.65-22.95-10.68-2.45-21.57-3.96-32.6-5.94-.25,2.15-.38,3.18-.49,4.18-1.35-4.18-5.52-5.32-12.57-3.2,2.87,7.19,5.74,14.36,8.6,21.53-.38.16-.76.32-1.14.48-2.84-6.61-5.91-13.14-8.4-19.88-.89-2.4-1.86-3.15-4.22-3.07-5.92.19-11.86,0-17.77.36-5.59.34-11.14,1.19-17.33,1.88,3.61,11.04-6.75,16.05-9.31,24.27.87-3.46,2.47-6.58,4.02-9.74,1.63-3.32,3.64-6.54,4.68-10.05.81-2.76-.39-4.63-4.03-3.54-8.22,2.47-16.55,4.6-24.77,7.04-2.5.74-4.82,2.07-6.12,2.64.74,5.55,2.42,10.41,1.71,14.88-.87,5.52-3.74,10.73-5.75,16.07.44-4.2,1.18-8.44,2.96-12.16,3.02-6.29,2.42-11.86-1.76-17.63-2.76,1.33-5.35,2.72-8.05,3.84-2.35.98-3.12,2.37-1.93,4.69,1.39,2.72,3.58,5.33,3.99,8.2.84,5.81.72,11.76,1,17.65-1.53-2.83-3.67-6.25-2.9-8.78,2.26-7.42-2.12-12.89-4.19-20.02-3.02,2.3-6.67,3.74-7.96,6.35-2.04,4.15-2.57,8.97.61,13.42,1.63,2.29,2.55,5.08,3.8,7.65-.33.14-.66.28-.99.41-2.64-6.63-10.16-11.71-5.18-20.87-15.33,6.95-50.37,43.48-52.15,53.58,1.97-.78,4.06-1.61,6.15-2.44-5.89,3.98-11.26,8.2-14.28,14.66-6.36,13.63-13.39,27.03-18.65,41.09-19.05,50.91-25.42,103.72-22.05,157.82,1.78,28.47,7.37,56.18,16.53,83.19,1.5,4.41,4.09,7.58,8.39,9.13,11.5,4.15,23.05,8.15,34.59,12.21,3.13,1.1,6.25,2.21,10.14,3.58v-17.91c3.02,6.47,5.53,11.79,7.97,17.14,1.14,2.5,2.79,4.01,5.66,4.53,8.6,1.54,17.18,3.19,25.72,5.03,9.59,2.07,19.1,4.51,28.69,6.58,5.12,1.11,8.16-.69,10.3-5.34.4-.88,1.07-1.64,1.62-2.46,1.2,1.49,1.51,2.82,1.63,4.17.82,8.83,2.55,17.21,8.64,24.28,1.86,2.17,3.25,5.6,3.17,8.41-.2,6.37-1.34,12.72-2.29,19.05-1.16,7.7-2.34,15.41-3.85,23.05-1.27,6.4-3.04,12.7-4.76,19.73,7.97,1.13,15.54,2.09,23.07,3.33,3.07.5,4.13-.35,4.75-3.49,3.81-19.38,7.7-38.75,11.99-58.03,1.27-5.72,4.29-11.04,5.82-16.72.69-2.58.48-6.01-.7-8.37-4.81-9.6-10.36-18.84-15.21-28.42-2.15-4.26-4.93-7.21-9.45-8.7-26.6-8.76-49.01-25.06-72.02-40.25-7.28-4.81-10.19-12.72-13.23-20.48.8.07,1.4.33,1.79.77,6.9,7.94,15.26,7.65,21.43-1,7.17-10.05,13.21-20.74,14.94-33.18,1.99-14.37,3.44-28.81,5.26-43.2.39-3.11-.7-4.85-3.25-6.59-14.28-9.77-27.16-21.08-38.55-34.2-33.56-38.65-28.32-91.25-.07-123.44,18.15-20.67,41.36-32.24,68.15-36.95,7.24-1.27,14.75-2.76,21.94-2.09,12.96,1.22,25.83,3.68,38.62,6.2,16.14,3.19,30.91,10.07,42.78,21.35,7.61,7.23,13.79,16.17,19.64,24.99,5.16,7.77,12,10.11,20.58,9.72,1.58-.07,3.16,0,4.74,0-.7,1.31-1.47,1.79-2.26,2.23-4.64,2.53-5.29,3.67-2.54,8.18,1.99,3.26,5.07,5.85,8.56,9.75-3.36-1.34-6.27-1.89-8.37-3.5-2.85-2.17-4.95-5.29-7.6-7.75-2.8-2.59-5.83-4.93-8.83-7.29-1.04-.82-2.34-1.31-3.47-2.03-4.76-3.06-7.9-7.39-10.78-12.26-3.72-6.29-7.49-13.12-12.94-17.67-6.6-5.51-14.64-9.69-22.64-13.04-22.78-9.54-46.37-12.01-71.11-9.02-20.56,2.49-37.53,10.35-51.92,24.9-22.35,22.61-25.23,56.37-6.76,82.22,11.74,16.43,27.54,28.25,44.32,38.92.92.59,2.69.3,3.9-.08,4.06-1.29,7.99-3.79,12.08-4.05,10.46-.66,16.49-6.09,18.44-16.17,2.57-13.27,10.42-22.47,19.57-31.12,7.34-6.93,15.88-11.98,25.7-14.64,1.24-.34,2.6-.23,3.9-.33.06.37.12.74.18,1.1-1.96.77-3.93,1.52-5.88,2.32-19.79,8.05-32.79,22.03-37.64,43.14-1.2,5.23-2.66,10.42-3.69,15.68-3.25,16.58,1.71,32.03,19.83,39.98,1.84.81,3.61,1.77,5.41,2.67-.15.38-.31.75-.46,1.13-1.32-.34-2.68-.58-3.96-1.04-3.04-1.09-5.98-2.49-9.07-3.37-3.3-.94-4.47.24-4.25,3.63.4,6.17,1.56,12.42.97,18.51-1.15,11.87-3.4,23.62-4.94,35.46-.46,3.57-1.96,6.1-5.06,7.65-3.34,1.67-4.48,4.75-4.74,7.95-.46,5.74,2.39,10.43,6.33,14.23.91.88,3.73.58,5.22-.13,1.93-.93,3.4-2.81,5.06-4.29-.79,2.43-2.19,4.32-3.47,6.29-1.34,2.06-.69,3.59,1.74,3.42,1.64-.12,3.96-.81,4.65-2.01,1.63-2.81,2.57-6.05,3.61-9.18,2.05-6.2,3.93-12.47,6.02-18.66.32-.94,1.41-1.62,2.14-2.43-.79,9.08-2.15,17.79-3.88,26.43-1.76,8.77-3.64,10.32-12.43,11.43-.2.03-.36.33-.95.89,3.24,3.31,4.95,8.42,10.86,8.25,4.42-.12,8.83-.48,13.23-.83,1.13-.09,2.24-.53,3.36-.81-.31-.27-.62-.54-.92-.81.83-1.88,1.15-4.64,2.59-5.49,5.37-3.17,11.23-5.51,17.63-3.48,2.43.77,3.43-.02,4.36-2,7.61-16.17,15.48-32.22,22.82-48.52,6.23-13.84,11.84-27.96,17.78-41.93,1.83-4.31,3.83-8.56,5.75-12.83-.4-.01-.8-.01-1.21-.02-.09-.83-.19-1.65-.28-2.48l-.11.07ZM196.39,250.75c-2.17,17.02-3.57,33.9-6.65,50.47-3.14,16.91-11.75,31.6-22.5,44.93.44.52.64.92.96,1.12,21.5,13.23,41.82,28.59,65.99,37.08,5.79,2.03,9.65,5.82,12.31,11.42,3.92,8.25,7.66,16.76,12.91,24.15,5.12,7.22,5.47,13.76,2.2,21.48-3.03,7.17-5.54,14.56-8.06,21.93-1.26,3.68.31,5.43,4.08,5.2,3.48-.22,6.97-.37,10.46-.54,16.44-.82,32.17-4.3,46.77-12.23,41.19-22.38,49.72-75.38,24.6-107.09-7.22-9.12-15.89-17.09-23.94-25.55-.58-.61-1.51-.89-2.57-1.49-2.18,4.66-4.07,9.1-6.34,13.33-.77,1.45-2.36,2.6-3.81,3.51-1.71,1.07-3.78,1.56-5.51,2.61-2.72,1.65-5.07,4.56-7.95,5.17-7.72,1.65-15.64,2.38-23.49,3.46-3.8.52-6.49-1.15-9.27-3.73-5.79-5.37-8.24-13.15-14.66-18.29-5.26-4.21-5.24-11.79-5.78-18.26-.35-4.19,1.67-7.7,5.58-10.06,1.14-.69,2.02-2.71,2.05-4.15.08-4.7-.44-9.41-.41-14.11.02-2.82-1.15-4.33-3.51-5.67-13.57-7.69-27.05-15.53-40.57-23.3-.9-.51-1.87-.9-2.89-1.39ZM130.76,454.46v-5.2c0-12.65.05-25.3-.07-37.95,0-1.41-.65-3.72-1.56-4.06-7.53-2.77-15.19-5.18-23.94-8.07-.55,8.9-1.34,17.01-1.42,25.14-.04,3.47.43,7.63,2.31,10.34,23.52,34.05,54.44,58.42,94.26,70.85,2.36.74,4.79,1.26,8.07,2.12,2.94-13.39,5.81-26.22,8.46-39.09.17-.82-1.21-2.61-2.19-2.92-16.02-5-31.98-10.23-48.18-14.58-11.88-3.21-24.07-5.18-35.74,3.42ZM217.95,462.07c.34-3.8.46-6.87.91-9.89.78-5.13-.63-9.27-3.99-13.35-2.29-2.78-3.71-6.55-4.6-10.11-.77-3.06-2.22-4.16-5.06-4.68-6.47-1.19-12.92-2.54-19.33-3.99-12.7-2.87-25.37-5.86-38.07-8.75-.92-.21-1.93-.03-3.84-.03,18.91,26.16,43.58,42.02,73.98,50.8ZM247.27,287.42c.44.07.88.14,1.31.21.94-3.16,2.65-6.31,2.68-9.48.15-13.51-.09-27.02-.48-40.53-.06-2.22-1.54-4.42-2.48-6.57-1.39-3.19-3.29-6.21-4.23-9.51-1.72-6.09-2.89-12.34-4.3-18.56-.21.15-.61.31-.81.6-8.03,11.92-2.49,25.98,4.82,35.16.93,1.17,2.28,2.52,2.31,3.81.13,6.03-.37,12.08-.2,18.1.28,8.93.91,17.85,1.38,26.77ZM97.22,421.66c.6-.14,1.21-.29,1.81-.43-.49-5.9-.84-11.82-1.52-17.7-.53-4.59-3.2-7.59-7.79-8.59-1.16-.25-2.96-.5-3.51.12-.67.74-.79,2.62-.32,3.62,3.66,7.71,7.53,15.33,11.33,22.98ZM218.34,207.86c-.11.47-.22.95-.32,1.42,4.35,2.46,8.71,4.93,13.85,7.84.48-4.78.87-8.63,1.36-13.53-5.79,1.66-10.34,2.97-14.89,4.27ZM296.57,338.96c-.28-.58-.56-1.16-.84-1.75-3.31.91-6.67,1.65-9.89,2.82-.97.35-1.5,1.9-2.24,2.9,1.26.39,2.81,1.44,3.72,1.04,3.21-1.39,6.19-3.3,9.25-5.01Z"/>
  <path class="cls-1" d="M268.04,138.03c-6.85,0-13.39.19-19.92-.04-10.44-.38-20.26,1.99-29.85,5.89-9.84,4.01-19.74,7.86-29.63,11.76-1.01.4-2.08.6-3.67,1.05,11.95-21.7,60.41-32.3,83.07-18.66Z"/>
  <path class="cls-1" d="M134.78,199.24c-10.78-20.76-21.57-41.51-32.87-63.26,1.91,1.16,3.35,1.8,4.5,2.76,8.95,7.51,12.55,18.22,16.76,28.51,3.69,9.05,7.03,18.23,10.53,27.36.56,1.47,1.12,2.93,1.68,4.4-.2.08-.4.15-.6.23Z"/>
  <path class="cls-1" d="M275.25,42.97c-11.04-5.85-18.21-15.1-23.41-26.3-.16,7.06,2.91,14.11-2.17,21.05-1.46-3.7-2.92-7.4-4.61-11.67-2.89,4.09-5.52,7.8-8.14,11.52-.19-.15-.39-.29-.58-.44,2.7-4.01,5.41-8.02,8.94-13.25,1.8,4.44,3.18,7.85,4.56,11.26.37-.07.73-.14,1.1-.21-.17-9.2.78-18.54-4.19-27.39,9.02,12.3,16.63,25.57,28.5,35.43Z"/>
  <path class="cls-1" d="M327.79,26.58c2.6,12.88-1.69,24.04-8.56,34.66,8.16-.42,17.26-13.66,22.47-32.22,1.05,5.2-.2,12.28-4.5,18.34-4.39,6.19-7.73,13.79-16.37,15.64-1.35.29-2.73.41-4.67.14,7.67-11.14,11.38-23.3,11.63-36.56Z"/>
  <path class="cls-1" d="M154.01,382.62c14.6,7.95,30.71,9.57,46.68,11.86,8.96,1.29,17.63,3.53,25.82,9.69-1.64-.21-2.52-.12-3.22-.43-12.58-5.51-26.08-7.2-39.4-9.75-10.59-2.02-20.9-5.04-29.88-11.37Z"/>
  <path class="cls-1" d="M119.1,330.53c-2.09,3.06-4.2,6.1-6.26,9.17-4.52,6.76-8.99,13.55-13.56,20.27-.52.77-1.57,1.18-2.38,1.76-.36-.9-.99-1.79-1-2.7-.02-1.02.44-2.09.83-3.08,4.33-11,12.4-18.9,21.22-26.18.39.25.77.5,1.15.76Z"/>
  <path class="cls-1" d="M350.08,227.61c-8.19-1.84-11.24-9.54-7.57-16.06,1.16-2.06,2.35-2.94,4.42-1.41,3.13,2.3,6.22,4.67,8.95,6.73-2.59,2.6-4.56,4.57-6.52,6.54-.14-.79-.11-2.18-.45-2.27-1.61-.45-3.31-.55-5.9-.9,2.15,2.31,2.64,5.61,6.17,3.3.25,1.38.51,2.77.77,4.14.02,0,.13-.07.13-.07Z"/>
  <path class="cls-1" d="M292.4,17.58c2.74,11.8,9.18,22.76,7.12,35.79-7.2-10.72-15.82-20.73-16.38-32.92,4.43,8.37,9.61,18.16,15.33,28.96,1.58-6.89-.87-11.72-2.56-16.74-1.65-4.89-2.99-9.9-4.46-14.85.31-.08.63-.16.95-.24Z"/>
  <path class="cls-1" d="M327.96,74.47c11.58,4.33,20.81.42,28.77-8.09-4.52,1.64-9.04,3.27-13.55,4.91-.02-.12-.04-.24-.06-.36,6.85-4.36,13.7-8.72,20.09-12.79-2.88,12.52-21.95,26.66-35.25,16.33Z"/>
  <path class="cls-1" d="M369.53,77.7c6.67-3.78,10.65-9.93,14.2-16.92-1.05,10.04-12.36,21.6-22.21,21.55,9.69-7.74,14.88-16.83,13.83-28.71,3.47,5.95,1.75,12.29-5.82,24.08Z"/>
  <path class="cls-1" d="M384.84,114.16c10.7.33,19.8-8.63,20.63-18.75.3-3.66,1.2-7.26,2.1-10.84,2.13,15.06-2.6,26.96-17.32,29.54-1.75.32-3.6.05-5.41.05Z"/>
  <path class="cls-1" d="M376.17,86.02c-10.44,10.4-18.07,10.62-34.2,1.3,5.79,1.4,11.88,4.21,17.84,3.94,5.9-.26,11.66-3.62,16.36-5.24Z"/>
  <path class="cls-1" d="M363.35,178.98c-.8,6.7-1.6,13.42-2.48,20.77-4.29-8.15-3.21-15.32,2.48-20.77Z"/>
  <path class="cls-1" d="M359.21,216.51c-2.92-2.16-5.46-4.29-8.25-6.03-2.66-1.66-5.59-2.9-8.95-4.6,8.99-1.11,17.03,3.95,17.2,10.63Z"/>
  <path class="cls-1" d="M311.47,226.38c-4.46,8.18-9.01,16.27-8.74,26.37-3.94-5.89.63-19.4,8.74-26.37Z"/>
  <path class="cls-1" d="M274.87,24.35c3.94,6.57,7.88,13.14,12.05,20.11-4.86-1.61-10.56-10.86-12.05-20.11Z"/>
  <path class="cls-1" d="M306.96,54.82c.92-9.6,1.83-19.18,2.57-26.94,2.41,6.58,1.66,18.2-2.57,26.94Z"/>
  <path class="cls-1" d="M227.78,493.65c1.89-10.57,3.79-21.15,5.68-31.72.25.05.51.1.76.15-.7,5.26-1.27,10.55-2.12,15.79-.87,5.37-2.02,10.7-3.05,16.04-.42-.09-.84-.17-1.27-.26Z"/>
  <path class="cls-1" d="M334.7,201.53c1.76,7.79-4.94,15.97,1.83,23.39-4.52-3.35-5.59-6.32-4.47-11.29.9-4.01,1.76-8.04,2.64-12.1Z"/>
  <path class="cls-1" d="M155.9,66.27c-1.52-7.74,1.4-16.1-3.82-23.21,6.19,6.92,4.59,15.17,3.82,23.21Z"/>
  <path class="cls-1" d="M192.41,49.06c1.54-4.28,3.04-8.58,4.64-12.85,1.41-3.77,2.93-7.51,4.78-11.18-2.67,8.16-5.35,16.31-8.02,24.47-.46-.14-.93-.29-1.4-.44Z"/>
  <path class="cls-1" d="M200.87,40.34c2.12-8.14,8.95-14.75,7.75-23.96,3.05,9.81-4.52,16.19-7.75,23.96Z"/>
  <path class="cls-1" d="M316.84,144.41c7.04.69,14.06,1.22,20.22-3.35-5.77,5.73-13.43,7.02-20.22,3.35Z"/>
  <path class="cls-1" d="M143.39,50.36c4.88,4.52,3.04,11.39,4.71,17.12-1.59-5.75-3.17-11.5-4.71-17.12Z"/>
  <path class="cls-1" d="M229.36,40.14c-.24-5.35-1.74-11.04,1.97-15.27-.61,4.69-1.29,9.98-1.97,15.27Z"/>
  <path class="cls-1" d="M337.4,219.78c.76-3.56,1.52-7.12,2.27-10.68.45.09.9.19,1.35.29-.75,3.51-1.5,7.03-2.24,10.54-.47-.05-.92-.1-1.38-.15Z"/>
  <path class="cls-1" d="M140.24,72.62c-2.83-2.93-5.65-5.85-8.48-8.78.27-.27.53-.54.8-.82,2.57,3.11,5.13,6.22,7.7,9.32,0,.1-.01.19-.02.28Z"/>
</svg>